<svg id="mouse" xmlns="http://www.w3.org/2000/svg" width="100" height="100" viewBox="0 0 24.144 34.286"><g id="Group_82" data-name="Group 82"><g id="Group_81" data-name="Group 81"><path id="Path_8249" data-name="Path 8249" d="M87.8,0A12.182,12.182,0,0,0,75.726,12.261v9.764a12.073,12.073,0,1,0,24.144.037v-9.8A12.182,12.182,0,0,0,87.8,0Zm9.8,22.063A9.8,9.8,0,1,1,78,22.025V12.261a9.8,9.8,0,1,1,19.6,0Z" transform="translate(-75.726)" fill="#000000"/></g></g><g id="Group_84" data-name="Group 84" transform="translate(10.937 9.385)"><g id="Group_83" data-name="Group 83"><path id="Path_8250" data-name="Path 8250" d="M240.181,140.15a1.135,1.135,0,0,0-1.135,1.135v3.974a1.135,1.135,0,0,0,2.271,0v-3.974A1.135,1.135,0,0,0,240.181,140.15Z" transform="translate(-239.046 -140.15)" fill="#000000"/></g></g></svg>