<svg xmlns="http://www.w3.org/2000/svg" width="24" height="70"><rect id="backgroundrect" width="100%" height="100%" x="0" y="0" fill="none" stroke="none" class="" style=""/>
  
  
<g class="currentLayer" style=""><title>Layer 1</title><g id="Group_82" data-name="Group 82" class="" stroke="none" fill="#ffffff" fill-opacity="1">
    <g id="Group_81" data-name="Group 81" stroke="none" stroke-opacity="1" fill="#ffffff" fill-opacity="1">
      <path id="Path_8249" data-name="Path 8249" d="M12.075237153705867,0 A12.182,12.182 0 0 0 0.0012371537058689663,12.261 v9.764 a12.073,12.073 0 1 0 24.144,0.03700000000000001 v-9.8 A12.182,12.182 0 0 0 12.075237153705867,0 zm9.8,22.063 A9.8,9.8 0 1 1 2.27523715370587,22.025 V12.261 a9.8,9.8 0 1 1 19.6,0 z" fill="#ffffff" stroke="none" stroke-opacity="1" fill-opacity="1"/>
    </g>
  </g><g id="Group_84" data-name="Group 84" class="" fill="#ffffff" fill-opacity="1">
    <g id="Group_83" data-name="Group 83" fill="#ffffff" fill-opacity="1">
      <path id="Path_8250" data-name="Path 8250" d="M12.073230104145335,9.385006332397467 a1.135,1.135 0 0 0 -1.135,1.135 v3.974 a1.135,1.135 0 0 0 2.271,0 v-3.974 A1.135,1.135 0 0 0 12.073230104145335,9.385006332397467 z" fill="#ffffff" fill-opacity="1"/>
    </g>
  </g><path fill="#ffffff" fill-opacity="1" stroke="#ffffff" stroke-opacity="1" stroke-width="1" stroke-dasharray="none" stroke-linejoin="round" stroke-linecap="butt" stroke-dashoffset="" fill-rule="nonzero" opacity="1" marker-start="" marker-mid="" marker-end="" d="M12.000000054130293,41.010750831176544 L12.000000054130293,69.78583214589689 " id="svg_1" class=""/></g></svg>